<?xml version="1.0" encoding="UTF-8"?>
<!DOCTYPE svg PUBLIC "-//W3C//DTD SVG 1.1//EN" "http://www.w3.org/Graphics/SVG/1.1/DTD/svg11.dtd">
<!-- Creator: CorelDRAW X7 -->
<svg xmlns="http://www.w3.org/2000/svg" xml:space="preserve" width="7.161mm" height="10.1277mm" version="1.1" style="shape-rendering:geometricPrecision; text-rendering:geometricPrecision; image-rendering:optimizeQuality; fill-rule:evenodd; clip-rule:evenodd"
viewBox="0 0 716 1013"
 xmlns:xlink="http://www.w3.org/1999/xlink"
 aria-hidden="true"
 data-prefix="far"
 data-icon="copy"
 role="img">
 <defs>
  <style type="text/css">
   <![CDATA[
    .fil0 {fill:#777777}
   ]]>
  </style>
 </defs>
 <g id="Layer_x0020_1">
  <metadata id="CorelCorpID_0Corel-Layer"/>
  <path class="fil0" d="M213 356l-3 -3c-1,-1 -1,-1 -2,-1l-9 0c-2,0 -3,1 -3,3l0 2 -4 0c-2,0 -3,2 -3,3l0 17c0,2 1,3 3,3l12 0c1,0 2,-1 2,-3l0 -2 5 0c1,0 2,-1 2,-3l0 -14c0,-1 0,-2 0,-2l0 0zm-9 21l-12 0c0,0 0,0 0,0l0 -17c0,0 0,0 0,0l4 0 0 12c0,2 1,3 3,3l5 0 0 2c0,0 0,0 0,0l0 0zm7 -5l-12 0c0,0 0,0 0,0l0 -17c0,0 0,0 0,0l6 0 0 5c0,0 0,1 1,1l5 0 0 11c0,0 0,0 -1,0l1 0zm0 -14l-3 0 0 -3 0 0c0,0 0,0 0,0l3 2c0,1 0,1 0,1 0,0 0,0 0,0l0 0 0 0z"/>
 </g>
</svg>
