<?xml version="1.0" encoding="UTF-8"?>
<!DOCTYPE svg PUBLIC "-//W3C//DTD SVG 1.1//EN" "http://www.w3.org/Graphics/SVG/1.1/DTD/svg11.dtd">
<!-- Creator: CorelDRAW X7 -->
<svg xmlns="http://www.w3.org/2000/svg" xml:space="preserve" width="7.161mm" height="8.185mm" version="1.1" style="shape-rendering:geometricPrecision; text-rendering:geometricPrecision; image-rendering:optimizeQuality; fill-rule:evenodd; clip-rule:evenodd"
viewBox="0 0 716 818"
 xmlns:xlink="http://www.w3.org/1999/xlink"
 aria-hidden="true"
 data-prefix="far"
 data-icon="copy"
 role="img">
 <defs>
  <style type="text/css">
   <![CDATA[
    .fil0 {fill:#777777}
   ]]>
  </style>
 </defs>
 <g id="Layer_x0020_1">
  <metadata id="CorelCorpID_0Corel-Layer"/>
  <path class="fil0" d="M693 104l-83 -83c-15,-14 -34,-22 -54,-22l-276 0c-42,0 -76,34 -76,77l0 76 -128 0c-42,0 -77,35 -77,77l0 512c0,42 35,76 77,76l358 0c42,0 77,-34 77,-76l0 -77 128 0c42,0 76,-34 76,-77l0 -428c0,-21 -8,-40 -22,-55l0 0zm-269 637l-339 0c-5,0 -9,-5 -9,-10l0 -492c0,-6 4,-10 9,-10l119 0 0 358c0,43 34,77 76,77l154 0 0 67c0,5 -4,10 -10,10l0 0zm215 -163l-349 0c-5,0 -10,-5 -10,-10l0 -483c0,-5 5,-9 10,-9l170 0 0 140c0,21 17,39 38,39l141 0 0 323c0,5 -5,9 -10,9l10 -9zm9 -410l-102 0 0 -92 15 0c3,0 5,1 7,2l77 78c2,1 3,4 3,6 0,0 0,0 0,0l0 16 0 -10z"/>
 </g>
</svg>
